# Made in Blockbench 4.10.4
mtllib sonic.mtl

o headwear
v 0.2862470233682093 2.0514545168800074 0.23321716258774217
v 0.33160387194265406 1.9759832638988115 -0.3223484017346365
v 0.2555280562172543 1.4945767005977801 0.30635875670433443
v 0.30088490479169894 1.4191054476165839 -0.24920680761804426
v -0.2282223076386276 2.0004258027642 -0.3713735070301942
v -0.2735791562130723 2.075897055745396 0.18419205729218446
v -0.2589412747895826 1.4435479864819727 -0.29823191291360196
v -0.3042981233640274 1.519019239463169 0.25733365140877673
vt 0.625 0.875
vt 0.75 0.875
vt 0.75 0.75
vt 0.625 0.75
vt 0.5 0.875
vt 0.625 0.875
vt 0.625 0.75
vt 0.5 0.75
vt 0.875 0.875
vt 1 0.875
vt 1 0.75
vt 0.875 0.75
vt 0.75 0.875
vt 0.875 0.875
vt 0.875 0.75
vt 0.75 0.75
vt 0.75 0.875
vt 0.625 0.875
vt 0.625 1
vt 0.75 1
vt 0.875 1
vt 0.75 1
vt 0.75 0.875
vt 0.875 0.875
vn 0.08063439746567952 -0.13417111641101562 -0.9876721143508957
vn 0.9952465414778341 -0.04345340242735779 0.08715574274765818
vn -0.08063439746567952 0.13417111641101562 0.9876721143508957
vn -0.9952465414778341 0.04345340242735779 -0.08715574274765818
vn 0.05461149715725341 0.99000500672396 -0.13002950065171948
vn -0.05461149715725341 -0.99000500672396 0.13002950065171948
usemtl m_711baa8b-e285-70ee-fc17-d4397ecf5eae
f 4/4/1 7/3/1 5/2/1 2/1/1
f 3/8/2 4/7/2 2/6/2 1/5/2
f 8/12/3 3/11/3 1/10/3 6/9/3
f 7/16/4 8/15/4 6/14/4 5/13/4
f 6/20/5 1/19/5 2/18/5 5/17/5
f 7/24/6 4/23/6 3/22/6 8/21/6
o head
v 0.2559587845816653 2.0176819318578945 0.20369221394877868
v 0.2962759833145051 1.9505963736523868 -0.2901438432266691
v 0.22865303600303866 1.5226794284959144 0.26870696427463847
v 0.26897023473587844 1.4555938702904068 -0.22512909290080935
v -0.20134728742441194 1.9723230748660656 -0.33372171460049815
v -0.24166448615725167 2.0394086330715733 0.1601143425749496
v -0.22865303600303866 1.4773205715040856 -0.2687069642746384
v -0.2689702347358784 1.5444061297095932 0.2251290929008094
vt 0.125 0.875
vt 0.25 0.875
vt 0.25 0.75
vt 0.125 0.75
vt 0 0.875
vt 0.125 0.875
vt 0.125 0.75
vt 0 0.75
vt 0.375 0.875
vt 0.5 0.875
vt 0.5 0.75
vt 0.375 0.75
vt 0.25 0.875
vt 0.375 0.875
vt 0.375 0.75
vt 0.25 0.75
vt 0.25 0.875
vt 0.125 0.875
vt 0.125 1
vt 0.25 1
vt 0.375 1
vt 0.25 1
vt 0.25 0.875
vt 0.375 0.875
vn 0.08063439746567952 -0.13417111641101562 -0.9876721143508957
vn 0.9952465414778341 -0.04345340242735779 0.08715574274765818
vn -0.08063439746567952 0.13417111641101562 0.9876721143508957
vn -0.9952465414778341 0.04345340242735779 -0.08715574274765818
vn 0.05461149715725341 0.99000500672396 -0.13002950065171948
vn -0.05461149715725341 -0.99000500672396 0.13002950065171948
usemtl m_711baa8b-e285-70ee-fc17-d4397ecf5eae
f 12/28/7 15/27/7 13/26/7 10/25/7
f 11/32/8 12/31/8 10/30/8 9/29/8
f 16/36/9 11/35/9 9/34/9 14/33/9
f 15/40/10 16/39/10 14/38/10 13/37/10
f 14/44/11 9/43/11 10/42/11 13/41/11
f 15/48/12 12/47/12 11/46/12 16/45/12
o jacket
v 0.265625 1.6065248313336107 0.09312352849492889
v 0.265625 1.4165150854417061 -0.11423572248291847
v 0.265625 1.0305269119507008 0.6209283781946633
v 0.265625 0.8405171660587964 0.41356912721681593
v -0.265625 1.4165150854417061 -0.11423572248291847
v -0.265625 1.6065248313336107 0.09312352849492889
v -0.265625 0.8405171660587964 0.41356912721681593
v -0.265625 1.0305269119507008 0.6209283781946633
vt 0.3125 0.4375
vt 0.4375 0.4375
vt 0.4375 0.25
vt 0.3125 0.25
vt 0.25 0.4375
vt 0.3125 0.4375
vt 0.3125 0.25
vt 0.25 0.25
vt 0.5 0.4375
vt 0.625 0.4375
vt 0.625 0.25
vt 0.5 0.25
vt 0.4375 0.4375
vt 0.5 0.4375
vt 0.5 0.25
vt 0.4375 0.25
vt 0.4375 0.4375
vt 0.3125 0.4375
vt 0.3125 0.5
vt 0.4375 0.5
vt 0.5625 0.5
vt 0.4375 0.5
vt 0.4375 0.4375
vt 0.5625 0.4375
vn 0 -0.6755902076156601 -0.7372773368101242
vn 1 0 0
vn 0 0.6755902076156601 0.7372773368101242
vn -1 0 0
vn 0 0.7372773368101242 -0.6755902076156601
vn 0 -0.7372773368101242 0.6755902076156601
usemtl m_711baa8b-e285-70ee-fc17-d4397ecf5eae
f 20/52/13 23/51/13 21/50/13 18/49/13
f 19/56/14 20/55/14 18/54/14 17/53/14
f 24/60/15 19/59/15 17/58/15 22/57/15
f 23/64/16 24/63/16 22/62/16 21/61/16
f 22/68/17 17/67/17 18/66/17 21/65/17
f 23/72/18 20/71/18 19/70/18 24/69/18
o body
v 0.25 1.5844487759519574 0.09215966710126555
v 0.25 1.4155512240480426 -0.09215966710126544
v 0.25 1.0314907733443643 0.5988523228130105
v 0.25 0.8625932214404495 0.4145329886104795
v -0.25 1.4155512240480426 -0.09215966710126544
v -0.25 1.5844487759519574 0.09215966710126555
v -0.25 0.8625932214404495 0.4145329886104795
v -0.25 1.0314907733443643 0.5988523228130105
vt 0.3125 0.6875
vt 0.4375 0.6875
vt 0.4375 0.5
vt 0.3125 0.5
vt 0.25 0.6875
vt 0.3125 0.6875
vt 0.3125 0.5
vt 0.25 0.5
vt 0.5 0.6875
vt 0.625 0.6875
vt 0.625 0.5
vt 0.5 0.5
vt 0.4375 0.6875
vt 0.5 0.6875
vt 0.5 0.5
vt 0.4375 0.5
vt 0.4375 0.6875
vt 0.3125 0.6875
vt 0.3125 0.75
vt 0.4375 0.75
vt 0.5625 0.75
vt 0.4375 0.75
vt 0.4375 0.6875
vt 0.5625 0.6875
vn 0 -0.6755902076156601 -0.7372773368101242
vn 1 0 0
vn 0 0.6755902076156601 0.7372773368101242
vn -1 0 0
vn 0 0.7372773368101242 -0.6755902076156601
vn 0 -0.7372773368101242 0.6755902076156601
usemtl m_711baa8b-e285-70ee-fc17-d4397ecf5eae
f 28/76/19 31/75/19 29/74/19 26/73/19
f 27/80/20 28/79/20 26/78/20 25/77/20
f 32/84/21 27/83/21 25/82/21 30/81/21
f 31/88/22 32/87/22 30/86/22 29/85/22
f 30/92/23 25/91/23 26/90/23 29/89/23
f 31/96/24 28/95/24 27/94/24 32/93/24
o right_sleeve
v 0.5176607210583812 1.5433090588794913 -0.013428271252899693
v 0.5543712126202707 1.264465191618107 -0.013428271252899693
v 0.2847441431647757 1.5126450096702886 0.7316630965191526
v 0.32145463472666524 1.2338011424089044 0.7316630965191524
v 0.2884330898009 1.2294537735452333 -0.09800177736347648
v 0.25172259823901044 1.5082976408066173 -0.09800177736347648
v 0.055516511907294674 1.1987897243360306 0.6470895904085756
v 0.018806020345405128 1.4776335915974148 0.6470895904085758
vt 0.6875 0.4375
vt 0.75 0.4375
vt 0.75 0.25
vt 0.6875 0.25
vt 0.625 0.4375
vt 0.6875 0.4375
vt 0.6875 0.25
vt 0.625 0.25
vt 0.8125 0.4375
vt 0.875 0.4375
vt 0.875 0.25
vt 0.8125 0.25
vt 0.75 0.4375
vt 0.8125 0.4375
vt 0.8125 0.25
vt 0.75 0.25
vt 0.75 0.4375
vt 0.6875 0.4375
vt 0.6875 0.5
vt 0.75 0.5
vt 0.8125 0.5
vt 0.75 0.5
vt 0.75 0.4375
vt 0.8125 0.4375
vn 0.13052619222005168 -0.9914448613738105 -4.3021142204224826e-16
vn 0.9455577700244292 0.12448504203688446 0.3007057995042732
vn -0.13052619222005168 0.9914448613738105 4.3021142204224826e-16
vn -0.9455577700244292 -0.12448504203688446 -0.3007057995042732
vn 0.29813321970381484 0.039249982987779486 -0.953716950748227
vn -0.29813321970381484 -0.039249982987779486 0.953716950748227
usemtl m_711baa8b-e285-70ee-fc17-d4397ecf5eae
f 36/100/25 39/99/25 37/98/25 34/97/25
f 35/104/26 36/103/26 34/102/26 33/101/26
f 40/108/27 35/107/27 33/106/27 38/105/27
f 39/112/28 40/111/28 38/110/28 37/109/28
f 38/116/29 33/115/29 34/114/29 37/113/29
f 39/120/30 36/119/30 35/118/30 40/117/30
o right_arm
v 0.5002675210973155 1.525259373154515 -0.0032249720147128347
v 0.5328990691523285 1.2773981578110625 -0.0032249720147128347
v 0.27666760631945453 1.4958218859136805 0.7120627410464573
v 0.3092991543744674 1.247960670570228 0.7120627410464571
v 0.29650962664622127 1.2462768973018414 -0.07840142189078114
v 0.2638780785912084 1.494138112645294 -0.07840142189078114
v 0.07290971186836015 1.2168394100610067 0.6368862911703888
v 0.040278163813347145 1.4647006254044594 0.636886291170389
vt 0.6875 0.6875
vt 0.75 0.6875
vt 0.75 0.5
vt 0.6875 0.5
vt 0.625 0.6875
vt 0.6875 0.6875
vt 0.6875 0.5
vt 0.625 0.5
vt 0.8125 0.6875
vt 0.875 0.6875
vt 0.875 0.5
vt 0.8125 0.5
vt 0.75 0.6875
vt 0.8125 0.6875
vt 0.8125 0.5
vt 0.75 0.5
vt 0.75 0.6875
vt 0.6875 0.6875
vt 0.6875 0.75
vt 0.75 0.75
vt 0.8125 0.75
vt 0.75 0.75
vt 0.75 0.6875
vt 0.8125 0.6875
vn 0.13052619222005168 -0.9914448613738105 -4.3021142204224826e-16
vn 0.9455577700244292 0.12448504203688446 0.3007057995042732
vn -0.13052619222005168 0.9914448613738105 4.3021142204224826e-16
vn -0.9455577700244292 -0.12448504203688446 -0.3007057995042732
vn 0.29813321970381484 0.039249982987779486 -0.953716950748227
vn -0.29813321970381484 -0.039249982987779486 0.953716950748227
usemtl m_711baa8b-e285-70ee-fc17-d4397ecf5eae
f 44/124/31 47/123/31 45/122/31 42/121/31
f 43/128/32 44/127/32 42/126/32 41/125/32
f 48/132/33 43/131/33 41/130/33 46/129/33
f 47/136/34 48/135/34 46/134/34 45/133/34
f 46/140/35 41/139/35 42/138/35 45/137/35
f 47/144/36 44/143/36 43/142/36 48/141/36
o left_sleeve
v -0.2451970695634743 1.460862140634863 -0.16744317926064434
v -0.20274107339165326 1.189529136991361 -0.10680118042441111
v -0.3400263218012263 1.6158431722948028 0.5923856535995264
v -0.2975703256294052 1.344510168651301 0.6530276524357597
v -0.47866427213270524 1.1408764324499296 -0.13131373307218985
v -0.5211202683045263 1.4122094360934314 -0.19195573190842308
v -0.5734935243704572 1.2958574641098697 0.6285150997879809
v -0.6159495205422783 1.5671904677533712 0.5678731009517477
vt 0.8125 0.1875
vt 0.875 0.1875
vt 0.875 0
vt 0.8125 0
vt 0.75 0.1875
vt 0.8125 0.1875
vt 0.8125 0
vt 0.75 0
vt 0.9375 0.1875
vt 1 0.1875
vt 1 0
vt 0.9375 0
vt 0.875 0.1875
vt 0.9375 0.1875
vt 0.9375 0
vt 0.875 0
vt 0.875 0.1875
vt 0.8125 0.1875
vt 0.8125 0.25
vt 0.875 0.25
vt 0.9375 0.25
vt 0.875 0.25
vt 0.875 0.1875
vt 0.9375 0.1875
vn 0.1509546530553638 -0.9647395685102291 0.21561599586216215
vn 0.981060262190407 0.17298739392508947 0.08715574274765818
vn -0.1509546530553638 0.9647395685102291 -0.21561599586216215
vn -0.981060262190407 -0.17298739392508947 -0.08715574274765818
vn 0.12138144286432256 -0.1983757205247233 -0.9725809060610188
vn -0.12138144286432256 0.1983757205247233 0.9725809060610188
usemtl m_711baa8b-e285-70ee-fc17-d4397ecf5eae
f 52/148/37 55/147/37 53/146/37 50/145/37
f 51/152/38 52/151/38 50/150/38 49/149/38
f 56/156/39 51/155/39 49/154/39 54/153/39
f 55/160/40 56/159/40 54/158/40 53/157/40
f 54/164/41 49/163/41 50/162/41 53/161/41
f 55/168/42 52/167/42 51/166/42 56/165/42
o left_arm
v -0.2600640547509644 1.4461847774800098 -0.1502394111485268
v -0.2223253914871235 1.2049998853524526 -0.09633541218298625
v -0.3511001368992063 1.594966567873552 0.5791962683972374
v -0.3133614736353654 1.353781675745995 0.6331002673627779
v -0.4675904570347252 1.1617530368711804 -0.11812434786990078
v -0.5053291202985661 1.4029379289987376 -0.17202834683544133
v -0.558626539182967 1.3105348272647226 0.6113113316758634
v -0.596365202446808 1.5517197193922798 0.5574073327103228
vt 0.5625 0.1875
vt 0.625 0.1875
vt 0.625 0
vt 0.5625 0
vt 0.5 0.1875
vt 0.5625 0.1875
vt 0.5625 0
vt 0.5 0
vt 0.6875 0.1875
vt 0.75 0.1875
vt 0.75 0
vt 0.6875 0
vt 0.625 0.1875
vt 0.6875 0.1875
vt 0.6875 0
vt 0.625 0
vt 0.625 0.1875
vt 0.5625 0.1875
vt 0.5625 0.25
vt 0.625 0.25
vt 0.6875 0.25
vt 0.625 0.25
vt 0.625 0.1875
vt 0.6875 0.1875
vn 0.1509546530553638 -0.9647395685102291 0.21561599586216215
vn 0.981060262190407 0.17298739392508947 0.08715574274765818
vn -0.1509546530553638 0.9647395685102291 -0.21561599586216215
vn -0.981060262190407 -0.17298739392508947 -0.08715574274765818
vn 0.12138144286432256 -0.1983757205247233 -0.9725809060610188
vn -0.12138144286432256 0.1983757205247233 0.9725809060610188
usemtl m_711baa8b-e285-70ee-fc17-d4397ecf5eae
f 60/172/43 63/171/43 61/170/43 58/169/43
f 59/176/44 60/175/44 58/174/44 57/173/44
f 64/180/45 59/179/45 57/178/45 62/177/45
f 63/184/46 64/183/46 62/182/46 61/181/46
f 62/188/47 57/187/47 58/186/47 61/185/47
f 63/192/48 60/191/48 59/190/48 64/189/48
o right_pants
v 0.265625 0.8948010170623277 0.7362207187438528
v 0.265625 1.102160268040175 0.5462109728519486
v 0.265625 0.3669961673625932 0.16022279936094364
v 0.265625 0.5743554183404405 -0.02978694653096081
v -0.015625 1.102160268040175 0.5462109728519486
v -0.015625 0.8948010170623277 0.7362207187438528
v -0.015625 0.5743554183404405 -0.02978694653096081
v -0.015625 0.3669961673625932 0.16022279936094364
vt 0.0625 0.4375
vt 0.125 0.4375
vt 0.125 0.25
vt 0.0625 0.25
vt 0 0.4375
vt 0.0625 0.4375
vt 0.0625 0.25
vt 0 0.25
vt 0.1875 0.4375
vt 0.25 0.4375
vt 0.25 0.25
vt 0.1875 0.25
vt 0.125 0.4375
vt 0.1875 0.4375
vt 0.1875 0.25
vt 0.125 0.25
vt 0.125 0.4375
vt 0.0625 0.4375
vt 0.0625 0.5
vt 0.125 0.5
vt 0.1875 0.5
vt 0.125 0.5
vt 0.125 0.4375
vt 0.1875 0.4375
vn 0 0.7372773368101241 -0.6755902076156604
vn 1 0 0
vn 0 -0.7372773368101241 0.6755902076156604
vn -1 0 0
vn 0 0.6755902076156604 0.7372773368101241
vn 0 -0.6755902076156604 -0.7372773368101241
usemtl m_711baa8b-e285-70ee-fc17-d4397ecf5eae
f 68/196/49 71/195/49 69/194/49 66/193/49
f 67/200/50 68/199/50 66/198/50 65/197/50
f 72/204/51 67/203/51 65/202/51 70/201/51
f 71/208/52 72/207/52 70/206/52 69/205/52
f 70/212/53 65/211/53 66/210/53 69/209/53
f 71/216/54 68/215/54 67/214/54 72/213/54
o right_leg
v 0.25 0.8957648784559913 0.7141446633622
v 0.25 1.0800842126585222 0.5452471114582851
v 0.25 0.389072222744246 0.16118666075460708
v 0.25 0.5733915569467771 -0.007710891149308008
v 0 1.0800842126585222 0.5452471114582851
v 0 0.8957648784559913 0.7141446633622
v 0 0.5733915569467771 -0.007710891149308008
v 0 0.389072222744246 0.16118666075460708
vt 0.0625 0.6875
vt 0.125 0.6875
vt 0.125 0.5
vt 0.0625 0.5
vt 0 0.6875
vt 0.0625 0.6875
vt 0.0625 0.5
vt 0 0.5
vt 0.1875 0.6875
vt 0.25 0.6875
vt 0.25 0.5
vt 0.1875 0.5
vt 0.125 0.6875
vt 0.1875 0.6875
vt 0.1875 0.5
vt 0.125 0.5
vt 0.125 0.6875
vt 0.0625 0.6875
vt 0.0625 0.75
vt 0.125 0.75
vt 0.1875 0.75
vt 0.125 0.75
vt 0.125 0.6875
vt 0.1875 0.6875
vn 0 0.7372773368101241 -0.6755902076156604
vn 1 0 0
vn 0 -0.7372773368101241 0.6755902076156604
vn -1 0 0
vn 0 0.6755902076156604 0.7372773368101241
vn 0 -0.6755902076156604 -0.7372773368101241
usemtl m_711baa8b-e285-70ee-fc17-d4397ecf5eae
f 76/220/55 79/219/55 77/218/55 74/217/55
f 75/224/56 76/223/56 74/222/56 73/221/56
f 80/228/57 75/227/57 73/226/57 78/225/57
f 79/232/58 80/231/58 78/230/58 77/229/58
f 78/236/59 73/235/59 74/234/59 77/233/59
f 79/240/60 76/239/60 75/238/60 80/237/60
o left_pants
v 0.015625 1.1220807515674995 0.5700305435351378
v 0.015625 0.8671816864634416 0.4511691574205663
v 0.015625 0.7919102345825781 1.2780835021575208
v 0.015625 0.5370111694785205 1.159222116042949
v -0.265625 0.8671816864634416 0.4511691574205663
v -0.265625 1.1220807515674995 0.5700305435351378
v -0.265625 0.5370111694785205 1.159222116042949
v -0.265625 0.7919102345825781 1.2780835021575208
vt 0.0625 0.1875
vt 0.125 0.1875
vt 0.125 0
vt 0.0625 0
vt 0 0.1875
vt 0.0625 0.1875
vt 0.0625 0
vt 0 0
vt 0.1875 0.1875
vt 0.25 0.1875
vt 0.25 0
vt 0.1875 0
vt 0.125 0.1875
vt 0.1875 0.1875
vt 0.1875 0
vt 0.125 0
vt 0.125 0.1875
vt 0.0625 0.1875
vt 0.0625 0.25
vt 0.125 0.25
vt 0.1875 0.25
vt 0.125 0.25
vt 0.125 0.1875
vt 0.1875 0.1875
vn 0 -0.90630778703665 -0.4226182617406993
vn 1 0 0
vn 0 0.90630778703665 0.4226182617406993
vn -1 0 0
vn 0 0.4226182617406993 -0.90630778703665
vn 0 -0.4226182617406993 0.90630778703665
usemtl m_711baa8b-e285-70ee-fc17-d4397ecf5eae
f 84/244/61 87/243/61 85/242/61 82/241/61
f 83/248/62 84/247/62 82/246/62 81/245/62
f 88/252/63 83/251/63 81/250/63 86/249/63
f 87/256/64 88/255/64 86/254/64 85/253/64
f 86/260/65 81/259/65 82/258/65 85/257/65
f 87/264/66 84/263/66 83/262/66 88/261/66
o left_leg
v 0 1.1013162820553535 0.5775881923678872
v 0 0.874739335296191 0.47193362693271235
v 0 0.7843525857498288 1.2573190326453747
v 0 0.5577756389906665 1.1516644672101999
v -0.25 0.874739335296191 0.47193362693271235
v -0.25 1.1013162820553535 0.5775881923678872
v -0.25 0.5577756389906665 1.1516644672101999
v -0.25 0.7843525857498288 1.2573190326453747
vt 0.3125 0.1875
vt 0.375 0.1875
vt 0.375 0
vt 0.3125 0
vt 0.25 0.1875
vt 0.3125 0.1875
vt 0.3125 0
vt 0.25 0
vt 0.4375 0.1875
vt 0.5 0.1875
vt 0.5 0
vt 0.4375 0
vt 0.375 0.1875
vt 0.4375 0.1875
vt 0.4375 0
vt 0.375 0
vt 0.375 0.1875
vt 0.3125 0.1875
vt 0.3125 0.25
vt 0.375 0.25
vt 0.4375 0.25
vt 0.375 0.25
vt 0.375 0.1875
vt 0.4375 0.1875
vn 0 -0.90630778703665 -0.4226182617406993
vn 1 0 0
vn 0 0.90630778703665 0.4226182617406993
vn -1 0 0
vn 0 0.4226182617406993 -0.90630778703665
vn 0 -0.4226182617406993 0.90630778703665
usemtl m_711baa8b-e285-70ee-fc17-d4397ecf5eae
f 92/268/67 95/267/67 93/266/67 90/265/67
f 91/272/68 92/271/68 90/270/68 89/269/68
f 96/276/69 91/275/69 89/274/69 94/273/69
f 95/280/70 96/279/70 94/278/70 93/277/70
f 94/284/71 89/283/71 90/282/71 93/281/71
f 95/288/72 92/287/72 91/286/72 96/285/72