# Made in Blockbench 4.10.4
mtllib template_model.mtl

o headwear
v -0.28124999999999994 0.09375 0.28125
v -0.28125000000000006 0.09375 -0.28125
v -0.28124999999999994 0.65625 0.28125
v -0.28125000000000006 0.65625 -0.28125000000000006
v 0.28125 0.09375 -0.28125000000000006
v 0.28125 0.09375 0.28125
v 0.28125 0.65625 -0.2812500000000001
v 0.28125 0.65625 0.2812499999999999
vt 0.625 0.875
vt 0.75 0.875
vt 0.75 0.75
vt 0.625 0.75
vt 0.5 0.875
vt 0.625 0.875
vt 0.625 0.75
vt 0.5 0.75
vt 0.875 0.875
vt 1 0.875
vt 1 0.75
vt 0.875 0.75
vt 0.75 0.875
vt 0.875 0.875
vt 0.875 0.75
vt 0.75 0.75
vt 0.75 0.875
vt 0.625 0.875
vt 0.625 1
vt 0.75 1
vt 0.875 1
vt 0.75 1
vt 0.75 0.875
vt 0.875 0.875
vn -1.2246467991473532e-16 -1.2246467991473532e-16 -1
vn -1 0 1.2246467991473532e-16
vn 1.2246467991473532e-16 1.2246467991473532e-16 1
vn 1 0 -1.2246467991473532e-16
vn 1.4997597826618576e-32 -1 1.2246467991473532e-16
vn -1.4997597826618576e-32 1 -1.2246467991473532e-16
usemtl m_711baa8b-e285-70ee-fc17-d4397ecf5eae
f 4/4/1 7/3/1 5/2/1 2/1/1
f 3/8/2 4/7/2 2/6/2 1/5/2
f 8/12/3 3/11/3 1/10/3 6/9/3
f 7/16/4 8/15/4 6/14/4 5/13/4
f 6/20/5 1/19/5 2/18/5 5/17/5
f 7/24/6 4/23/6 3/22/6 8/21/6
o head
v -0.25 0.125 0.25
v -0.25000000000000006 0.125 -0.25
v -0.25 0.625 0.25
v -0.25000000000000006 0.625 -0.25000000000000006
v 0.25 0.125 -0.25000000000000006
v 0.25 0.125 0.25
v 0.25 0.625 -0.2500000000000001
v 0.25 0.625 0.2499999999999999
vt 0.125 0.875
vt 0.25 0.875
vt 0.25 0.75
vt 0.125 0.75
vt 0 0.875
vt 0.125 0.875
vt 0.125 0.75
vt 0 0.75
vt 0.375 0.875
vt 0.5 0.875
vt 0.5 0.75
vt 0.375 0.75
vt 0.25 0.875
vt 0.375 0.875
vt 0.375 0.75
vt 0.25 0.75
vt 0.25 0.875
vt 0.125 0.875
vt 0.125 1
vt 0.25 1
vt 0.375 1
vt 0.25 1
vt 0.25 0.875
vt 0.375 0.875
vn -1.2246467991473532e-16 -1.2246467991473532e-16 -1
vn -1 0 1.2246467991473532e-16
vn 1.2246467991473532e-16 1.2246467991473532e-16 1
vn 1 0 -1.2246467991473532e-16
vn 1.4997597826618576e-32 -1 1.2246467991473532e-16
vn -1.4997597826618576e-32 1 -1.2246467991473532e-16
usemtl m_711baa8b-e285-70ee-fc17-d4397ecf5eae
f 12/28/7 15/27/7 13/26/7 10/25/7
f 11/32/8 12/31/8 10/30/8 9/29/8
f 16/36/9 11/35/9 9/34/9 14/33/9
f 15/40/10 16/39/10 14/38/10 13/37/10
f 14/44/11 9/43/11 10/42/11 13/41/11
f 15/48/12 12/47/12 11/46/12 16/45/12
o jacket
v -0.265625 0.609375 0.140625
v -0.265625 0.609375 -0.14062500000000006
v -0.265625 1.390625 0.1406249999999999
v -0.265625 1.390625 -0.1406250000000001
v 0.265625 0.609375 -0.1406250000000001
v 0.265625 0.609375 0.1406249999999999
v 0.265625 1.390625 -0.14062500000000022
v 0.265625 1.390625 0.14062499999999978
vt 0.3125 0.4375
vt 0.4375 0.4375
vt 0.4375 0.25
vt 0.3125 0.25
vt 0.25 0.4375
vt 0.3125 0.4375
vt 0.3125 0.25
vt 0.25 0.25
vt 0.5 0.4375
vt 0.625 0.4375
vt 0.625 0.25
vt 0.5 0.25
vt 0.4375 0.4375
vt 0.5 0.4375
vt 0.5 0.25
vt 0.4375 0.25
vt 0.4375 0.4375
vt 0.3125 0.4375
vt 0.3125 0.5
vt 0.4375 0.5
vt 0.5625 0.5
vt 0.4375 0.5
vt 0.4375 0.4375
vt 0.5625 0.4375
vn -1.2246467991473532e-16 -1.2246467991473532e-16 -1
vn -1 0 1.2246467991473532e-16
vn 1.2246467991473532e-16 1.2246467991473532e-16 1
vn 1 0 -1.2246467991473532e-16
vn 1.4997597826618576e-32 -1 1.2246467991473532e-16
vn -1.4997597826618576e-32 1 -1.2246467991473532e-16
usemtl m_711baa8b-e285-70ee-fc17-d4397ecf5eae
f 20/52/13 23/51/13 21/50/13 18/49/13
f 19/56/14 20/55/14 18/54/14 17/53/14
f 24/60/15 19/59/15 17/58/15 22/57/15
f 23/64/16 24/63/16 22/62/16 21/61/16
f 22/68/17 17/67/17 18/66/17 21/65/17
f 23/72/18 20/71/18 19/70/18 24/69/18
o body
v -0.25 0.625 0.125
v -0.25 0.625 -0.12500000000000006
v -0.25 1.375 0.12499999999999989
v -0.25 1.375 -0.1250000000000001
v 0.25 0.625 -0.1250000000000001
v 0.25 0.625 0.12499999999999989
v 0.25 1.375 -0.12500000000000022
v 0.25 1.375 0.12499999999999978
vt 0.3125 0.6875
vt 0.4375 0.6875
vt 0.4375 0.5
vt 0.3125 0.5
vt 0.25 0.6875
vt 0.3125 0.6875
vt 0.3125 0.5
vt 0.25 0.5
vt 0.5 0.6875
vt 0.625 0.6875
vt 0.625 0.5
vt 0.5 0.5
vt 0.4375 0.6875
vt 0.5 0.6875
vt 0.5 0.5
vt 0.4375 0.5
vt 0.4375 0.6875
vt 0.3125 0.6875
vt 0.3125 0.75
vt 0.4375 0.75
vt 0.5625 0.75
vt 0.4375 0.75
vt 0.4375 0.6875
vt 0.5625 0.6875
vn -1.2246467991473532e-16 -1.2246467991473532e-16 -1
vn -1 0 1.2246467991473532e-16
vn 1.2246467991473532e-16 1.2246467991473532e-16 1
vn 1 0 -1.2246467991473532e-16
vn 1.4997597826618576e-32 -1 1.2246467991473532e-16
vn -1.4997597826618576e-32 1 -1.2246467991473532e-16
usemtl m_711baa8b-e285-70ee-fc17-d4397ecf5eae
f 28/76/19 31/75/19 29/74/19 26/73/19
f 27/80/20 28/79/20 26/78/20 25/77/20
f 32/84/21 27/83/21 25/82/21 30/81/21
f 31/88/22 32/87/22 30/86/22 29/85/22
f 30/92/23 25/91/23 26/90/23 29/89/23
f 31/96/24 28/95/24 27/94/24 32/93/24
o right_sleeve
v -0.504176324279425 0.8535488248749155 -0.14062500000000033
v -0.504176324279425 0.8535488248749155 0.14062499999999978
v -0.5722667483010331 0.07527171699073909 -0.14062500000000017
v -0.5722667483010331 0.07527171699073909 0.140625
v -0.22399656544112162 0.8290362722271363 0.14062499999999978
v -0.22399656544112162 0.8290362722271363 -0.1406250000000004
v -0.2920869894627296 0.050759164342959906 0.1406249999999999
v -0.2920869894627296 0.050759164342959906 -0.14062500000000022
vt 0.6875 0.4375
vt 0.75 0.4375
vt 0.75 0.25
vt 0.6875 0.25
vt 0.625 0.4375
vt 0.6875 0.4375
vt 0.6875 0.25
vt 0.625 0.25
vt 0.8125 0.4375
vt 0.875 0.4375
vt 0.875 0.25
vt 0.8125 0.25
vt 0.75 0.4375
vt 0.8125 0.4375
vt 0.8125 0.25
vt 0.75 0.25
vt 0.75 0.4375
vt 0.6875 0.4375
vt 0.6875 0.5
vt 0.75 0.5
vt 0.8125 0.5
vt 0.75 0.5
vt 0.75 0.4375
vt 0.8125 0.4375
vn 1.3313818005305828e-16 2.4446334474929736e-16 1
vn -0.9961946980917455 0.08715574274765817 1.1132516469623906e-16
vn -1.3313818005305828e-16 -2.4446334474929736e-16 -1
vn 0.9961946980917455 -0.08715574274765817 -1.1132516469623906e-16
vn 0.08715574274765818 0.9961946980917455 -2.551368448876202e-16
vn -0.08715574274765818 -0.9961946980917455 2.551368448876202e-16
usemtl m_711baa8b-e285-70ee-fc17-d4397ecf5eae
f 36/100/25 39/99/25 37/98/25 34/97/25
f 35/104/26 36/103/26 34/102/26 33/101/26
f 40/108/27 35/107/27 33/106/27 38/105/27
f 39/112/28 40/111/28 38/110/28 37/109/28
f 38/116/29 33/115/29 34/114/29 37/113/29
f 39/120/30 36/119/30 35/118/30 40/117/30
o right_arm
v -0.48997259060217363 0.8366214742367997 -0.12500000000000033
v -0.48997259060217363 0.8366214742367997 0.12499999999999978
v -0.5553393976629173 0.08947545066799023 -0.12500000000000017
v -0.5553393976629173 0.08947545066799023 0.12499999999999989
v -0.2409239160792373 0.8148325385498851 0.12499999999999967
v -0.2409239160792373 0.8148325385498851 -0.1250000000000004
v -0.30629072313998096 0.0676865149810757 0.12499999999999989
v -0.30629072313998096 0.0676865149810757 -0.12500000000000022
vt 0.6875 0.6875
vt 0.75 0.6875
vt 0.75 0.5
vt 0.6875 0.5
vt 0.625 0.6875
vt 0.6875 0.6875
vt 0.6875 0.5
vt 0.625 0.5
vt 0.8125 0.6875
vt 0.875 0.6875
vt 0.875 0.5
vt 0.8125 0.5
vt 0.75 0.6875
vt 0.8125 0.6875
vt 0.8125 0.5
vt 0.75 0.5
vt 0.75 0.6875
vt 0.6875 0.6875
vt 0.6875 0.75
vt 0.75 0.75
vt 0.8125 0.75
vt 0.75 0.75
vt 0.75 0.6875
vt 0.8125 0.6875
vn 1.3313818005305828e-16 2.4446334474929736e-16 1
vn -0.9961946980917455 0.08715574274765817 1.1132516469623906e-16
vn -1.3313818005305828e-16 -2.4446334474929736e-16 -1
vn 0.9961946980917455 -0.08715574274765817 -1.1132516469623906e-16
vn 0.08715574274765818 0.9961946980917455 -2.551368448876202e-16
vn -0.08715574274765818 -0.9961946980917455 2.551368448876202e-16
usemtl m_711baa8b-e285-70ee-fc17-d4397ecf5eae
f 44/124/31 47/123/31 45/122/31 42/121/31
f 43/128/32 44/127/32 42/126/32 41/125/32
f 48/132/33 43/131/33 41/130/33 46/129/33
f 47/136/34 48/135/34 46/134/34 45/133/34
f 46/140/35 41/139/35 42/138/35 45/137/35
f 47/144/36 44/143/36 43/142/36 48/141/36
o left_sleeve
v 0.23251271959191988 0.8214842741829544 -0.14062500000000044
v 0.23251271959191988 0.8214842741829544 0.14062499999999967
v 0.3006031436135278 0.04320716629877808 -0.14062500000000022
v 0.3006031436135278 0.04320716629877808 0.1406249999999999
v 0.5126924784302234 0.8459968268307336 0.14062499999999967
v 0.5126924784302234 0.8459968268307336 -0.14062500000000044
v 0.5807829024518312 0.06771971894655726 0.14062499999999978
v 0.5807829024518312 0.06771971894655726 -0.14062500000000028
vt 0.8125 0.1875
vt 0.875 0.1875
vt 0.875 0
vt 0.8125 0
vt 0.75 0.1875
vt 0.8125 0.1875
vt 0.8125 0
vt 0.75 0
vt 0.9375 0.1875
vt 1 0.1875
vt 1 0
vt 0.9375 0
vt 0.875 0.1875
vt 0.9375 0.1875
vt 0.9375 0
vt 0.875 0
vt 0.875 0.1875
vt 0.8125 0.1875
vt 0.8125 0.25
vt 0.875 0.25
vt 0.9375 0.25
vt 0.875 0.25
vt 0.875 0.1875
vt 0.9375 0.1875
vn 1.1179117977641236e-16 2.4446334474929736e-16 1
vn -0.9961946980917455 -0.08715574274765817 1.3267216497288495e-16
vn -1.1179117977641236e-16 -2.4446334474929736e-16 -1
vn 0.9961946980917455 0.08715574274765817 -1.3267216497288495e-16
vn -0.08715574274765818 0.9961946980917455 -2.3378984461097426e-16
vn 0.08715574274765818 -0.9961946980917455 2.3378984461097426e-16
usemtl m_711baa8b-e285-70ee-fc17-d4397ecf5eae
f 52/148/37 55/147/37 53/146/37 50/145/37
f 51/152/38 52/151/38 50/150/38 49/149/38
f 56/156/39 51/155/39 49/154/39 54/153/39
f 55/160/40 56/159/40 54/158/40 53/157/40
f 54/164/41 49/163/41 50/162/41 53/161/41
f 55/168/42 52/167/42 51/166/42 56/165/42
o left_arm
v 0.24944007023003545 0.8072805405057037 -0.12500000000000044
v 0.24944007023003556 0.8072805405057037 0.12499999999999967
v 0.31480687729077916 0.06013451693689431 -0.12500000000000022
v 0.31480687729077916 0.06013451693689431 0.12499999999999978
v 0.4984887447529718 0.8290694761926183 0.12499999999999967
v 0.4984887447529718 0.8290694761926183 -0.12500000000000044
v 0.5638555518137154 0.08192345262380885 0.12499999999999978
v 0.5638555518137154 0.08192345262380885 -0.12500000000000028
vt 0.5625 0.1875
vt 0.625 0.1875
vt 0.625 0
vt 0.5625 0
vt 0.5 0.1875
vt 0.5625 0.1875
vt 0.5625 0
vt 0.5 0
vt 0.6875 0.1875
vt 0.75 0.1875
vt 0.75 0
vt 0.6875 0
vt 0.625 0.1875
vt 0.6875 0.1875
vt 0.6875 0
vt 0.625 0
vt 0.625 0.1875
vt 0.5625 0.1875
vt 0.5625 0.25
vt 0.625 0.25
vt 0.6875 0.25
vt 0.625 0.25
vt 0.625 0.1875
vt 0.6875 0.1875
vn 1.1179117977641236e-16 2.4446334474929736e-16 1
vn -0.9961946980917455 -0.08715574274765817 1.3267216497288495e-16
vn -1.1179117977641236e-16 -2.4446334474929736e-16 -1
vn 0.9961946980917455 0.08715574274765817 -1.3267216497288495e-16
vn -0.08715574274765818 0.9961946980917455 -2.3378984461097426e-16
vn 0.08715574274765818 -0.9961946980917455 2.3378984461097426e-16
usemtl m_711baa8b-e285-70ee-fc17-d4397ecf5eae
f 60/172/43 63/171/43 61/170/43 58/169/43
f 59/176/44 60/175/44 58/174/44 57/173/44
f 64/180/45 59/179/45 57/178/45 62/177/45
f 63/184/46 64/183/46 62/182/46 61/181/46
f 62/188/47 57/187/47 58/186/47 61/185/47
f 63/192/48 60/191/48 59/190/48 64/189/48
o right_pants
v -0.19218298451763888 1.3396825544093862 0.20765313145855835
v -0.2994031363091039 1.3303020066261042 -0.05218798706024097
v -0.2602734085392468 2.1179596622935626 0.20765313145855835
v -0.36749356033071184 2.1085791145102806 -0.05218798706024108
v -0.040550791694447086 1.3529486523069925 -0.15981770241292248
v 0.06666936009701796 1.3623292000902745 0.10002341610587684
v -0.10864121571605506 2.131225760191169 -0.1598177024129226
v -0.0014210639245899603 2.140606307974451 0.10002341610587684
vt 0.0625 0.4375
vt 0.125 0.4375
vt 0.125 0.25
vt 0.0625 0.25
vt 0 0.4375
vt 0.0625 0.4375
vt 0.0625 0.25
vt 0 0.25
vt 0.1875 0.4375
vt 0.25 0.4375
vt 0.25 0.25
vt 0.1875 0.25
vt 0.125 0.4375
vt 0.1875 0.4375
vt 0.1875 0.25
vt 0.125 0.25
vt 0.125 0.4375
vt 0.0625 0.4375
vt 0.0625 0.5
vt 0.125 0.5
vt 0.1875 0.5
vt 0.125 0.5
vt 0.125 0.4375
vt 0.1875 0.4375
vn -0.38122720636965357 -0.03335305878500271 -0.9238795325112868
vn -0.9203638919632243 -0.08052140686538035 0.38268343236508984
vn 0.38122720636965357 0.03335305878500271 0.9238795325112868
vn 0.9203638919632243 0.08052140686538035 -0.38268343236508984
vn 0.08715574274765817 -0.9961946980917455 1.1796119636642288e-16
vn -0.08715574274765817 0.9961946980917455 -1.1796119636642288e-16
usemtl m_711baa8b-e285-70ee-fc17-d4397ecf5eae
f 68/196/49 71/195/49 69/194/49 66/193/49
f 67/200/50 68/199/50 66/198/50 65/197/50
f 72/204/51 67/203/51 65/202/51 70/201/51
f 71/208/52 72/207/52 70/206/52 69/205/52
f 70/212/53 65/211/53 66/210/53 69/209/53
f 71/216/54 68/215/54 67/214/54 72/213/54
o right_leg
v -0.18512078228567153 1.355985102005826 0.18723808513236506
v -0.28042758387808486 1.3476468373095751 -0.04373179799545668
v -0.25048758934641513 2.103131125574635 0.18723808513236495
v -0.3457943909388285 2.094792860878384 -0.043731797995456734
v -0.05033661088727881 1.36777718902592 -0.13940265608672908
v 0.04497019070513464 1.376115453722171 0.09156722704109255
v -0.11570341794802241 2.114923212594729 -0.1394026560867292
v -0.02039661635560902 2.12326147729098 0.09156722704109255
vt 0.0625 0.6875
vt 0.125 0.6875
vt 0.125 0.5
vt 0.0625 0.5
vt 0 0.6875
vt 0.0625 0.6875
vt 0.0625 0.5
vt 0 0.5
vt 0.1875 0.6875
vt 0.25 0.6875
vt 0.25 0.5
vt 0.1875 0.5
vt 0.125 0.6875
vt 0.1875 0.6875
vt 0.1875 0.5
vt 0.125 0.5
vt 0.125 0.6875
vt 0.0625 0.6875
vt 0.0625 0.75
vt 0.125 0.75
vt 0.1875 0.75
vt 0.125 0.75
vt 0.125 0.6875
vt 0.1875 0.6875
vn -0.38122720636965357 -0.03335305878500271 -0.9238795325112868
vn -0.9203638919632243 -0.08052140686538035 0.38268343236508984
vn 0.38122720636965357 0.03335305878500271 0.9238795325112868
vn 0.9203638919632243 0.08052140686538035 -0.38268343236508984
vn 0.08715574274765817 -0.9961946980917455 1.1796119636642288e-16
vn -0.08715574274765817 0.9961946980917455 -1.1796119636642288e-16
usemtl m_711baa8b-e285-70ee-fc17-d4397ecf5eae
f 76/220/55 79/219/55 77/218/55 74/217/55
f 75/224/56 76/223/56 74/222/56 73/221/56
f 80/228/57 75/227/57 73/226/57 78/225/57
f 79/232/58 80/231/58 78/230/58 77/229/58
f 78/236/59 73/235/59 74/234/59 77/233/59
f 79/240/60 76/239/60 75/238/60 80/237/60
o left_pants
v -0.025020125910961477 1.3586853642544585 0.13708339152203175
v -0.012798856478267118 1.357616141725202 -0.14389892079786581
v 0.043070298110646554 2.1369624721386344 0.13708339152203164
v 0.05529156754334086 2.135893249609378 -0.14389892079786593
v 0.2671142333123737 1.3331269195960065 -0.1316309681013651
v 0.2548929638796794 1.334196142125263 0.14935134421853247
v 0.33520465733398164 2.111404027480183 -0.1316309681013652
v 0.32298338790128733 2.1124732500094394 0.14935134421853236
vt 0.0625 0.1875
vt 0.125 0.1875
vt 0.125 0
vt 0.0625 0
vt 0 0.1875
vt 0.0625 0.1875
vt 0.0625 0
vt 0 0
vt 0.1875 0.1875
vt 0.25 0.1875
vt 0.25 0
vt 0.1875 0
vt 0.125 0.1875
vt 0.1875 0.1875
vt 0.1875 0
vt 0.125 0
vt 0.125 0.1875
vt 0.0625 0.1875
vt 0.0625 0.25
vt 0.125 0.25
vt 0.1875 0.25
vt 0.125 0.25
vt 0.125 0.1875
vt 0.1875 0.1875
vn 0.04345340242735767 -0.0038016801040237987 -0.9990482215818578
vn -0.9952465414778341 0.08707278979269382 -0.04361938736533589
vn -0.04345340242735767 0.0038016801040237987 0.9990482215818578
vn 0.9952465414778341 -0.08707278979269382 0.04361938736533589
vn -0.0871557427476582 -0.9961946980917455 1.3227266504323154e-16
vn 0.0871557427476582 0.9961946980917455 -1.3227266504323154e-16
usemtl m_711baa8b-e285-70ee-fc17-d4397ecf5eae
f 84/244/61 87/243/61 85/242/61 82/241/61
f 83/248/62 84/247/62 82/246/62 81/245/62
f 88/252/63 83/251/63 81/250/63 86/249/63
f 87/256/64 88/255/64 86/254/64 85/253/64
f 86/260/65 81/259/65 82/258/65 85/257/65
f 87/264/66 84/263/66 83/262/66 88/261/66
o left_leg
v -0.007428630807010672 1.3728309928200058 0.12215481598739852
v 0.0034347197998287893 1.3718805727939998 -0.1276072394080659
v 0.05793817625373299 2.1199770163888148 0.12215481598739841
v 0.06880152686057239 2.119026596362809 -0.127607239408066
v 0.2522463551692873 1.3501123753458262 -0.11670239256673193
v 0.24138300456244788 1.3510627953718322 0.1330596628287325
v 0.3176131622300309 2.0972583989146356 -0.11670239256673198
v 0.3067498116231915 2.098208818940641 0.13305966282873238
vt 0.3125 0.1875
vt 0.375 0.1875
vt 0.375 0
vt 0.3125 0
vt 0.25 0.1875
vt 0.3125 0.1875
vt 0.3125 0
vt 0.25 0
vt 0.4375 0.1875
vt 0.5 0.1875
vt 0.5 0
vt 0.4375 0
vt 0.375 0.1875
vt 0.4375 0.1875
vt 0.4375 0
vt 0.375 0
vt 0.375 0.1875
vt 0.3125 0.1875
vt 0.3125 0.25
vt 0.375 0.25
vt 0.4375 0.25
vt 0.375 0.25
vt 0.375 0.1875
vt 0.4375 0.1875
vn 0.04345340242735767 -0.0038016801040237987 -0.9990482215818578
vn -0.9952465414778341 0.08707278979269382 -0.04361938736533589
vn -0.04345340242735767 0.0038016801040237987 0.9990482215818578
vn 0.9952465414778341 -0.08707278979269382 0.04361938736533589
vn -0.0871557427476582 -0.9961946980917455 1.3227266504323154e-16
vn 0.0871557427476582 0.9961946980917455 -1.3227266504323154e-16
usemtl m_711baa8b-e285-70ee-fc17-d4397ecf5eae
f 92/268/67 95/267/67 93/266/67 90/265/67
f 91/272/68 92/271/68 90/270/68 89/269/68
f 96/276/69 91/275/69 89/274/69 94/273/69
f 95/280/70 96/279/70 94/278/70 93/277/70
f 94/284/71 89/283/71 90/282/71 93/281/71
f 95/288/72 92/287/72 91/286/72 96/285/72